<svg xmlns="http://www.w3.org/2000/svg" xmlns:xlink="http://www.w3.org/1999/xlink" width="500" zoomAndPan="magnify" viewBox="0 0 375 374.999991" height="500" preserveAspectRatio="xMidYMid meet" version="1.0"><defs><g/><clipPath id="14acb2ac18"><path d="M 13.582031 256.460938 L 187.5 256.460938 L 187.5 266.550781 L 13.582031 266.550781 Z M 13.582031 256.460938 " clip-rule="nonzero"/></clipPath></defs><g clip-path="url(#14acb2ac18)"><path fill="#ffffff" d="M 13.582031 256.460938 L 187.488281 256.460938 L 187.488281 266.550781 L 13.582031 266.550781 Z M 13.582031 256.460938 " fill-opacity="1" fill-rule="nonzero"/></g><g fill="#ffffff" fill-opacity="1"><g transform="translate(204.313779, 266.619544)"><g><path d="M 4.8125 0.203125 C 3.945312 0.203125 3.203125 0.0625 2.578125 -0.21875 C 1.960938 -0.5 1.484375 -0.898438 1.140625 -1.421875 C 0.804688 -1.953125 0.640625 -2.566406 0.640625 -3.265625 L 2.9375 -3.265625 C 2.9375 -2.773438 3.101562 -2.394531 3.4375 -2.125 C 3.78125 -1.851562 4.234375 -1.71875 4.796875 -1.71875 C 5.285156 -1.71875 5.671875 -1.8125 5.953125 -2 C 6.234375 -2.1875 6.375 -2.453125 6.375 -2.796875 C 6.375 -3.160156 6.203125 -3.453125 5.859375 -3.671875 C 5.523438 -3.898438 4.992188 -4.09375 4.265625 -4.25 C 3.066406 -4.507812 2.175781 -4.894531 1.59375 -5.40625 C 1.019531 -5.925781 0.734375 -6.601562 0.734375 -7.4375 C 0.734375 -8.375 1.070312 -9.113281 1.75 -9.65625 C 2.4375 -10.195312 3.375 -10.46875 4.5625 -10.46875 C 5.375 -10.46875 6.078125 -10.328125 6.671875 -10.046875 C 7.273438 -9.773438 7.738281 -9.382812 8.0625 -8.875 C 8.382812 -8.375 8.546875 -7.78125 8.546875 -7.09375 L 6.3125 -7.09375 C 6.3125 -7.550781 6.160156 -7.910156 5.859375 -8.171875 C 5.554688 -8.429688 5.132812 -8.5625 4.59375 -8.5625 C 4.101562 -8.5625 3.710938 -8.46875 3.421875 -8.28125 C 3.140625 -8.09375 3 -7.828125 3 -7.484375 C 3 -7.171875 3.15625 -6.90625 3.46875 -6.6875 C 3.789062 -6.476562 4.34375 -6.28125 5.125 -6.09375 C 6.40625 -5.789062 7.328125 -5.382812 7.890625 -4.875 C 8.460938 -4.363281 8.75 -3.703125 8.75 -2.890625 C 8.75 -1.921875 8.394531 -1.160156 7.6875 -0.609375 C 6.988281 -0.0664062 6.03125 0.203125 4.8125 0.203125 Z M 4.8125 0.203125 "/></g></g></g><g fill="#ffffff" fill-opacity="1"><g transform="translate(225.455127, 266.619544)"><g><path d="M 1.234375 0 L 1.234375 -10.265625 L 7.984375 -10.265625 L 7.984375 -8.296875 L 3.546875 -8.296875 L 3.546875 -6.171875 L 7.578125 -6.171875 L 7.578125 -4.21875 L 3.546875 -4.21875 L 3.546875 -1.984375 L 8.140625 -1.984375 L 8.140625 0 Z M 1.234375 0 "/></g></g></g><g fill="#ffffff" fill-opacity="1"><g transform="translate(246.082982, 266.619544)"><g><path d="M 1.234375 0 L 1.234375 -10.265625 L 5.625 -10.265625 C 6.40625 -10.265625 7.082031 -10.125 7.65625 -9.84375 C 8.238281 -9.5625 8.6875 -9.15625 9 -8.625 C 9.3125 -8.09375 9.46875 -7.460938 9.46875 -6.734375 C 9.46875 -5.984375 9.296875 -5.332031 8.953125 -4.78125 C 8.609375 -4.238281 8.128906 -3.832031 7.515625 -3.5625 L 9.640625 0 L 6.9375 0 L 5.109375 -3.203125 L 3.5625 -3.203125 L 3.5625 0 Z M 3.53125 -5.171875 L 5.3125 -5.171875 C 5.882812 -5.171875 6.320312 -5.300781 6.625 -5.5625 C 6.9375 -5.832031 7.09375 -6.21875 7.09375 -6.71875 C 7.09375 -7.21875 6.9375 -7.601562 6.625 -7.875 C 6.320312 -8.144531 5.882812 -8.28125 5.3125 -8.28125 L 3.53125 -8.28125 Z M 3.53125 -5.171875 "/></g></g></g><g fill="#ffffff" fill-opacity="1"><g transform="translate(268.148636, 266.619544)"><g><path d="M 4.078125 0 L 0.125 -10.265625 L 2.640625 -10.265625 L 4 -6.609375 L 5.234375 -3.359375 L 7.8125 -10.265625 L 10.3125 -10.265625 L 6.375 0 Z M 4.078125 0 "/></g></g></g><g fill="#ffffff" fill-opacity="1"><g transform="translate(290.331665, 266.619544)"><g><path d="M 1.234375 0 L 1.234375 -10.265625 L 3.5625 -10.265625 L 3.5625 0 Z M 1.234375 0 "/></g></g></g><g fill="#ffffff" fill-opacity="1"><g transform="translate(306.866209, 266.619544)"><g><path d="M 5.9375 0.203125 C 4.90625 0.203125 3.988281 -0.0195312 3.1875 -0.46875 C 2.382812 -0.925781 1.753906 -1.554688 1.296875 -2.359375 C 0.847656 -3.160156 0.625 -4.085938 0.625 -5.140625 C 0.625 -6.179688 0.847656 -7.101562 1.296875 -7.90625 C 1.753906 -8.707031 2.378906 -9.332031 3.171875 -9.78125 C 3.972656 -10.238281 4.890625 -10.46875 5.921875 -10.46875 C 6.796875 -10.46875 7.59375 -10.300781 8.3125 -9.96875 C 9.039062 -9.644531 9.648438 -9.175781 10.140625 -8.5625 C 10.640625 -7.957031 10.988281 -7.242188 11.1875 -6.421875 L 8.78125 -6.421875 C 8.582031 -6.992188 8.234375 -7.441406 7.734375 -7.765625 C 7.234375 -8.097656 6.65625 -8.265625 6 -8.265625 C 5.425781 -8.265625 4.910156 -8.128906 4.453125 -7.859375 C 3.992188 -7.597656 3.632812 -7.234375 3.375 -6.765625 C 3.125 -6.296875 3 -5.753906 3 -5.140625 C 3 -4.515625 3.125 -3.96875 3.375 -3.5 C 3.632812 -3.03125 3.988281 -2.664062 4.4375 -2.40625 C 4.894531 -2.144531 5.410156 -2.015625 5.984375 -2.015625 C 6.660156 -2.015625 7.253906 -2.1875 7.765625 -2.53125 C 8.273438 -2.875 8.632812 -3.34375 8.84375 -3.9375 L 11.25 -3.9375 C 11.082031 -3.101562 10.75 -2.375 10.25 -1.75 C 9.75 -1.132812 9.128906 -0.65625 8.390625 -0.3125 C 7.660156 0.03125 6.84375 0.203125 5.9375 0.203125 Z M 5.9375 0.203125 "/></g></g></g><g fill="#ffffff" fill-opacity="1"><g transform="translate(330.443007, 266.619544)"><g><path d="M 1.234375 0 L 1.234375 -10.265625 L 7.984375 -10.265625 L 7.984375 -8.296875 L 3.546875 -8.296875 L 3.546875 -6.171875 L 7.578125 -6.171875 L 7.578125 -4.21875 L 3.546875 -4.21875 L 3.546875 -1.984375 L 8.140625 -1.984375 L 8.140625 0 Z M 1.234375 0 "/></g></g></g><g fill="#ffffff" fill-opacity="1"><g transform="translate(351.070859, 266.619544)"><g><path d="M 4.8125 0.203125 C 3.945312 0.203125 3.203125 0.0625 2.578125 -0.21875 C 1.960938 -0.5 1.484375 -0.898438 1.140625 -1.421875 C 0.804688 -1.953125 0.640625 -2.566406 0.640625 -3.265625 L 2.9375 -3.265625 C 2.9375 -2.773438 3.101562 -2.394531 3.4375 -2.125 C 3.78125 -1.851562 4.234375 -1.71875 4.796875 -1.71875 C 5.285156 -1.71875 5.671875 -1.8125 5.953125 -2 C 6.234375 -2.1875 6.375 -2.453125 6.375 -2.796875 C 6.375 -3.160156 6.203125 -3.453125 5.859375 -3.671875 C 5.523438 -3.898438 4.992188 -4.09375 4.265625 -4.25 C 3.066406 -4.507812 2.175781 -4.894531 1.59375 -5.40625 C 1.019531 -5.925781 0.734375 -6.601562 0.734375 -7.4375 C 0.734375 -8.375 1.070312 -9.113281 1.75 -9.65625 C 2.4375 -10.195312 3.375 -10.46875 4.5625 -10.46875 C 5.375 -10.46875 6.078125 -10.328125 6.671875 -10.046875 C 7.273438 -9.773438 7.738281 -9.382812 8.0625 -8.875 C 8.382812 -8.375 8.546875 -7.78125 8.546875 -7.09375 L 6.3125 -7.09375 C 6.3125 -7.550781 6.160156 -7.910156 5.859375 -8.171875 C 5.554688 -8.429688 5.132812 -8.5625 4.59375 -8.5625 C 4.101562 -8.5625 3.710938 -8.46875 3.421875 -8.28125 C 3.140625 -8.09375 3 -7.828125 3 -7.484375 C 3 -7.171875 3.15625 -6.90625 3.46875 -6.6875 C 3.789062 -6.476562 4.34375 -6.28125 5.125 -6.09375 C 6.40625 -5.789062 7.328125 -5.382812 7.890625 -4.875 C 8.460938 -4.363281 8.75 -3.703125 8.75 -2.890625 C 8.75 -1.921875 8.394531 -1.160156 7.6875 -0.609375 C 6.988281 -0.0664062 6.03125 0.203125 4.8125 0.203125 Z M 4.8125 0.203125 "/></g></g></g><g fill="#ffffff" fill-opacity="1"><g transform="translate(23.267958, 236.234962)"><g><path d="M 118.421875 -22.109375 C 112.546875 -14.617188 105.425781 -8.875 97.0625 -4.875 C 88.6875 -0.875 79.753906 1.125 70.265625 1.125 C 59.148438 1.125 48.90625 -1.6875 39.53125 -7.3125 C 30.039062 -12.800781 22.546875 -20.359375 17.046875 -29.984375 C 11.554688 -39.472656 8.8125 -49.835938 8.8125 -61.078125 C 8.8125 -72.328125 11.554688 -82.757812 17.046875 -92.375 C 22.546875 -101.988281 30.039062 -109.546875 39.53125 -115.046875 C 48.90625 -120.546875 59.148438 -123.296875 70.265625 -123.296875 C 79.003906 -123.296875 87.375 -121.546875 95.375 -118.046875 C 103.363281 -114.421875 110.234375 -109.363281 115.984375 -102.875 L 104.375 -92.5625 C 100 -97.3125 94.8125 -101.0625 88.8125 -103.8125 C 82.820312 -106.425781 76.640625 -107.734375 70.265625 -107.734375 C 62.023438 -107.734375 54.40625 -105.675781 47.40625 -101.5625 C 40.28125 -97.3125 34.660156 -91.625 30.546875 -84.5 C 26.421875 -77.257812 24.359375 -69.453125 24.359375 -61.078125 C 24.359375 -52.710938 26.421875 -44.96875 30.546875 -37.84375 C 34.660156 -30.601562 40.28125 -24.921875 47.40625 -20.796875 C 54.40625 -16.546875 62.023438 -14.421875 70.265625 -14.421875 C 77.265625 -14.421875 83.945312 -15.984375 90.3125 -19.109375 C 96.5625 -22.109375 101.867188 -26.359375 106.234375 -31.859375 Z M 118.421875 -22.109375 "/></g></g></g><g fill="#ffffff" fill-opacity="1"><g transform="translate(134.190552, 236.234962)"><g><path d="M 15.921875 0 L 15.921875 -121.984375 L 60.515625 -121.984375 C 65.890625 -121.984375 71.078125 -121.109375 76.078125 -119.359375 C 80.941406 -117.609375 85.25 -115.109375 89 -111.859375 C 93 -108.484375 96.125 -104.550781 98.375 -100.0625 C 100.5 -95.5625 101.5625 -90.875 101.5625 -86 C 101.5625 -81.007812 100.5 -76.328125 98.375 -71.953125 C 96.125 -67.453125 93 -63.453125 89 -59.953125 C 85.25 -56.710938 80.941406 -54.21875 76.078125 -52.46875 C 71.078125 -50.59375 65.890625 -49.65625 60.515625 -49.65625 L 31.859375 -49.65625 L 31.859375 0 Z M 31.859375 -65.390625 L 60.515625 -65.390625 C 65.140625 -65.390625 69.390625 -66.328125 73.265625 -68.203125 C 77.140625 -70.078125 80.257812 -72.578125 82.625 -75.703125 C 84.875 -78.828125 86 -82.257812 86 -86 C 86 -89.625 84.875 -93 82.625 -96.125 C 80.257812 -99.25 77.140625 -101.75 73.265625 -103.625 C 69.265625 -105.363281 65.015625 -106.234375 60.515625 -106.234375 L 31.484375 -106.234375 Z M 31.859375 -65.390625 "/></g></g></g><g fill="#ffffff" fill-opacity="1"><g transform="translate(230.123579, 236.234962)"><g><path d="M 15.921875 0 L 15.921875 -121.984375 L 52.84375 -121.984375 C 61.457031 -121.984375 69.515625 -120.421875 77.015625 -117.296875 C 84.503906 -114.046875 90.9375 -109.425781 96.3125 -103.4375 C 101.3125 -97.8125 105.179688 -91.375 107.921875 -84.125 C 110.546875 -76.882812 111.859375 -69.265625 111.859375 -61.265625 C 111.859375 -53.148438 110.546875 -45.46875 107.921875 -38.21875 C 105.179688 -30.851562 101.3125 -24.359375 96.3125 -18.734375 C 90.9375 -12.617188 84.503906 -8 77.015625 -4.875 C 69.515625 -1.625 61.457031 0 52.84375 0 Z M 31.484375 -15.546875 L 52.84375 -15.546875 C 61.957031 -15.546875 69.828125 -17.734375 76.453125 -22.109375 C 82.816406 -26.359375 87.75 -31.976562 91.25 -38.96875 C 94.625 -45.84375 96.3125 -53.273438 96.3125 -61.265625 C 96.3125 -67.265625 95.3125 -73.015625 93.3125 -78.515625 C 91.3125 -83.878906 88.375 -88.6875 84.5 -92.9375 C 80.757812 -97.3125 76.203125 -100.625 70.828125 -102.875 C 65.328125 -105.113281 59.332031 -106.234375 52.84375 -106.234375 L 31.484375 -106.234375 Z M 31.484375 -15.546875 "/></g></g></g></svg>